<svg xmlns="http://www.w3.org/2000/svg" xmlns:xlink="http://www.w3.org/1999/xlink" viewBox="0 0 108.333 56.333" fill="#fff" fill-rule="evenodd" stroke="#000" stroke-linecap="round" stroke-linejoin="round">
    <use xlink:href="#a" x="4.167" y="4.167" />
    <symbol id="a" overflow="visible">
        <g stroke="none" fill-rule="nonzero">
            <path d="M7.95 47.666a7.946 7.946 0 007.942-7.942v-7.942H7.95c-4.383 0-7.942 3.558-7.942 7.942s3.558 7.942 7.942 7.942z" fill="#0acf83" />
            <path d="M0 23.834a7.946 7.946 0 017.942-7.942h7.942v15.892H7.942A7.95 7.95 0 010 23.842z" fill="#a259ff" />
            <path d="M0 7.942A7.945 7.945 0 017.942 0h7.942v15.892H7.942A7.95 7.95 0 010 7.95z" fill="#f24e1e" />
            <path d="M31.784 23.834a7.95 7.95 0 01-7.942 7.942c-4.383 0-8.025-3.558-8.025-7.942a7.95 7.95 0 017.942-7.942 7.946 7.946 0 017.942 7.942z" fill="#1abcfe" />
        </g>
    </symbol>
</svg>